<svg width="168" height="48" viewBox="0 0 168 48" fill="none" xmlns="http://www.w3.org/2000/svg">
<g filter="url(#filter0_dd_0_4210)">
<path fill-rule="evenodd" clip-rule="evenodd" d="M72.3174 29.5312V13.2143H76.6997V8.19196H72.3174V0H66.1474V8.19196H62.3538V13.2143H66.1474V29.5312H72.3174ZM10.2137 18.2366V29.5312H4V8.19196H10.2137V11.2946C10.7224 10.1935 11.4491 9.32292 12.3939 8.68304C13.4113 8.07292 14.5015 7.76786 15.6642 7.76786C18.9637 7.76786 21.1948 9.01786 22.3576 11.5179C23.8837 8.9881 25.9549 7.72321 28.5712 7.72321C31.1875 7.72321 33.186 8.56399 34.5669 10.2455C35.9477 11.9271 36.6381 14.3155 36.6381 17.4107V29.5312H30.4898V18.1473C30.4898 16.8378 30.1773 15.8036 29.5523 15.0446C28.8983 14.2857 28.0407 13.9062 26.9797 13.9062C25.9186 13.9062 25.0683 14.2634 24.4288 14.9777C23.7892 15.692 23.4695 16.7783 23.4695 18.2366V29.5312H17.2558V18.0134C17.1977 16.7336 16.8561 15.7292 16.2311 15C15.5916 14.2708 14.7631 13.9062 13.7456 13.9062C12.7282 13.9062 11.8852 14.256 11.2166 14.9554C10.548 15.6548 10.2137 16.7485 10.2137 18.2366ZM61.4981 8.19196L48.6347 40H42.0722L47.0868 27.3438L39.0417 8.19196H45.6478L50.2481 20.2902L54.892 8.19196H61.4981ZM99.2923 25.6473C97.3591 28.5491 94.1833 29.9926 89.7646 29.9777C86.6978 29.9777 84.1106 28.9435 82.003 26.875C79.9245 24.7768 78.8853 22.0833 78.8853 18.7946C78.8853 15.506 79.9245 12.8348 82.003 10.7812C84.0815 8.72768 86.6542 7.70833 89.721 7.72321C92.7879 7.72321 95.3388 8.76488 97.3737 10.8482C99.4085 12.9315 100.433 15.6399 100.448 18.9732C100.448 19.003 100.419 19.6577 100.361 20.9375H85.0771C85.1934 22.0685 85.7603 22.9464 86.7777 23.5714C87.7952 24.1964 88.9434 24.5089 90.2225 24.5089C92.2138 24.5089 93.7327 23.8393 94.7792 22.5L99.2923 25.6473ZM94.1905 16.9643H85.1644C85.3969 15.8036 85.9783 14.8958 86.9085 14.2411C87.8097 13.5863 88.7835 13.2738 89.83 13.3036C90.8766 13.3333 91.8286 13.6607 92.6862 14.2857C93.5437 14.9107 94.0452 15.8036 94.1905 16.9643ZM117.088 29.2188C115.911 29.7247 114.785 29.9628 113.709 29.933C110.846 29.933 108.36 28.9062 106.253 26.8527C104.145 24.7991 103.091 22.128 103.091 18.8393C103.091 15.5506 104.181 12.8795 106.362 10.8259C108.542 8.77232 110.991 7.7381 113.709 7.72321C114.814 7.72321 115.947 7.96875 117.11 8.45982C118.273 8.95089 119.167 9.6503 119.792 10.558V8.19196H125.94V29.5312H119.792V27.0982C119.167 28.006 118.266 28.7128 117.088 29.2188ZM114.712 23.9062C113.302 23.9062 112.088 23.4301 111.071 22.4777C110.024 21.5253 109.501 20.3199 109.501 18.8616C109.501 17.4182 110.024 16.2054 111.071 15.2232C112.205 14.256 113.447 13.7723 114.799 13.7723C116.151 13.7723 117.321 14.2485 118.309 15.2009C119.298 16.1533 119.792 17.3735 119.792 18.8616C119.792 20.3497 119.298 21.5625 118.309 22.5C117.321 23.4375 116.122 23.9062 114.712 23.9062ZM137.522 18.2366V29.5312H131.309V8.19196H137.522V11.2946C138.031 10.1935 138.758 9.32292 139.703 8.68304C140.72 8.07292 141.81 7.76786 142.973 7.76786C146.272 7.76786 148.504 9.01786 149.666 11.5179C151.193 8.9881 153.264 7.72321 155.88 7.72321C158.496 7.72321 160.495 8.56399 161.876 10.2455C163.256 11.9271 163.947 14.3155 163.947 17.4107V29.5312H157.799V18.1473C157.799 16.8378 157.486 15.8036 156.861 15.0446C156.207 14.2857 155.35 13.9062 154.288 13.9062C153.227 13.9062 152.377 14.2634 151.738 14.9777C151.098 15.692 150.778 16.7783 150.778 18.2366V29.5312H144.565V18.0134C144.506 16.7336 144.165 15.7292 143.54 15C142.9 14.2708 142.072 13.9062 141.054 13.9062C140.037 13.9062 139.194 14.256 138.525 14.9554C137.857 15.6548 137.522 16.7485 137.522 18.2366Z" fill="white"/>
</g>
<defs>
<filter id="filter0_dd_0_4210" x="0" y="0" width="167.947" height="48" filterUnits="userSpaceOnUse" color-interpolation-filters="sRGB">
<feFlood flood-opacity="0" result="BackgroundImageFix"/>
<feColorMatrix in="SourceAlpha" type="matrix" values="0 0 0 0 0 0 0 0 0 0 0 0 0 0 0 0 0 0 127 0" result="hardAlpha"/>
<feOffset dy="4"/>
<feGaussianBlur stdDeviation="2"/>
<feComposite in2="hardAlpha" operator="out"/>
<feColorMatrix type="matrix" values="0 0 0 0 0 0 0 0 0 0 0 0 0 0 0 0 0 0 0.25 0"/>
<feBlend mode="normal" in2="BackgroundImageFix" result="effect1_dropShadow_0_4210"/>
<feColorMatrix in="SourceAlpha" type="matrix" values="0 0 0 0 0 0 0 0 0 0 0 0 0 0 0 0 0 0 127 0" result="hardAlpha"/>
<feOffset dy="4"/>
<feGaussianBlur stdDeviation="2"/>
<feComposite in2="hardAlpha" operator="out"/>
<feColorMatrix type="matrix" values="0 0 0 0 0 0 0 0 0 0 0 0 0 0 0 0 0 0 0.25 0"/>
<feBlend mode="normal" in2="effect1_dropShadow_0_4210" result="effect2_dropShadow_0_4210"/>
<feBlend mode="normal" in="SourceGraphic" in2="effect2_dropShadow_0_4210" result="shape"/>
</filter>
</defs>
</svg>
